#tb 0: 1/2
#media_type 0: video
#codec_id 0: rawvideo
#dimensions 0: 320x240
#sar 0: 1/1
0,          0,          0,        1,   230400, 0x5166b2b0
0,          1,          1,        1,   230400, 0x1fcc8e0e
0,          2,          2,        1,   230400, 0xce04db47
0,          3,          3,        1,   230400, 0xc25661af
0,          4,          4,        1,   230400, 0x727f06aa
0,          5,          5,        1,   230400, 0x2e0f9cc5
0,          6,          6,        1,   230400, 0x407fb93b
0,          7,          7,        1,   230400, 0xc19c2087
0,          8,          8,        1,   230400, 0xacacb223
0,          9,          9,        1,   230400, 0x1277e355
0,         10,         10,        1,   230400, 0xcd36c65d
0,         11,         11,        1,   230400, 0x6c530182
0,         12,         12,        1,   230400, 0x803b2da3
0,         13,         13,        1,   230400, 0x82638dc2
0,         14,         14,        1,   230400, 0x2064904b
0,         15,         15,        1,   230400, 0xce3a7092
0,         16,         16,        1,   230400, 0x374abb39
0,         17,         17,        1,   230400, 0xf8b37d16
0,         18,         18,        1,   230400, 0xb3d1c642
0,         19,         19,        1,   230400, 0xc9b392d1
